<svg width="100" height="100" viewBox="0 0 100 100" fill="none" xmlns="http://www.w3.org/2000/svg">
<path d="M67.1081 63.1999H49.6497C49.0972 63.1999 48.5673 62.9804 48.1766 62.5897C47.7859 62.199 47.5664 61.6691 47.5664 61.1165C47.5664 60.564 47.7859 60.0341 48.1766 59.6434C48.5673 59.2527 49.0972 59.0332 49.6497 59.0332H67.1081C67.6606 59.0332 68.1905 59.2527 68.5812 59.6434C68.9719 60.0341 69.1914 60.564 69.1914 61.1165C69.1914 61.6691 68.9719 62.199 68.5812 62.5897C68.1905 62.9804 67.6606 63.1999 67.1081 63.1999Z" fill="#FF4343"/>
<path d="M78.8583 61.9082C78.6117 61.9667 78.3548 61.9667 78.1083 61.9082C77.8515 61.8157 77.6159 61.6726 77.4153 61.4874C77.2148 61.3022 77.0535 61.0787 76.9408 60.8301C76.8281 60.5815 76.7665 60.3128 76.7595 60.04C76.7524 59.7671 76.8002 59.4956 76.8999 59.2416L86.8166 32.7416C87.0128 32.2299 87.4028 31.8162 87.9019 31.59C88.401 31.3638 88.9692 31.3434 89.4833 31.5332C89.9989 31.7387 90.4159 32.1341 90.6485 32.638C90.8811 33.142 90.9114 33.7159 90.7333 34.2416L80.8166 60.6166C80.6486 60.9971 80.3746 61.3213 80.0274 61.5504C79.6801 61.7794 79.2742 61.9036 78.8583 61.9082Z" fill="#FF4343"/>
<path d="M36.3164 62.6995C35.8817 62.7027 35.4573 62.5669 35.1051 62.3121C34.7528 62.0573 34.4911 61.6967 34.3581 61.2829L21.2747 21.5329H8.77474C8.22221 21.5329 7.6923 21.3134 7.3016 20.9227C6.9109 20.532 6.69141 20.0021 6.69141 19.4495C6.70207 18.9003 6.92499 18.3766 7.3134 17.9882C7.70182 17.5998 8.22555 17.3769 8.77474 17.3662H22.7747C23.2064 17.3754 23.6251 17.5159 23.9749 17.769C24.3248 18.0221 24.5892 18.3757 24.7331 18.7829L38.4414 59.9495C38.5327 60.2065 38.5716 60.4791 38.5558 60.7514C38.5401 61.0236 38.4699 61.2899 38.3495 61.5346C38.2291 61.7793 38.0609 61.9974 37.8549 62.176C37.6488 62.3546 37.409 62.4901 37.1497 62.5745C36.885 62.6789 36.6001 62.7216 36.3164 62.6995Z" fill="#FF4343"/>
<path d="M42.7334 81.4502C40.2611 81.4502 37.8444 80.7171 35.7888 79.3436C33.7332 77.9701 32.131 76.0178 31.1849 73.7338C30.2388 71.4497 29.9913 68.9363 30.4736 66.5116C30.9559 64.0868 32.1464 61.8595 33.8946 60.1114C35.6427 58.3632 37.87 57.1727 40.2948 56.6904C42.7195 56.2081 45.2329 56.4556 47.5169 57.4017C49.801 58.3478 51.7533 59.95 53.1268 62.0056C54.5003 64.0612 55.2334 66.4779 55.2334 68.9502C55.2334 72.2654 53.9164 75.4448 51.5722 77.789C49.228 80.1333 46.0486 81.4502 42.7334 81.4502ZM42.7334 60.6169C41.0852 60.6169 39.4741 61.1056 38.1037 62.0213C36.7332 62.937 35.6651 64.2385 35.0344 65.7612C34.4037 67.2839 34.2386 68.9595 34.5602 70.576C34.8817 72.1925 35.6754 73.6773 36.8408 74.8428C38.0063 76.0082 39.4911 76.8019 41.1077 77.1234C42.7242 77.445 44.3997 77.2799 45.9224 76.6492C47.4452 76.0185 48.7466 74.9504 49.6623 73.58C50.578 72.2095 51.0667 70.5984 51.0667 68.9502C51.0667 66.7401 50.1888 64.6205 48.626 63.0576C47.0632 61.4948 44.9435 60.6169 42.7334 60.6169Z" fill="#FF4343"/>
<path d="M74.0254 81.4502C71.5531 81.4502 69.1364 80.7171 67.0808 79.3436C65.0252 77.9701 63.423 76.0178 62.4769 73.7338C61.5308 71.4497 61.2833 68.9363 61.7656 66.5116C62.2479 64.0868 63.4384 61.8595 65.1866 60.1114C66.9347 58.3632 69.162 57.1727 71.5868 56.6904C74.0115 56.2081 76.5249 56.4556 78.8089 57.4017C81.093 58.3478 83.0452 59.95 84.4188 62.0056C85.7923 64.0612 86.5254 66.4779 86.5254 68.9502C86.5254 72.2654 85.2084 75.4448 82.8642 77.789C80.52 80.1333 77.3406 81.4502 74.0254 81.4502ZM74.0254 60.6169C72.3772 60.6169 70.7661 61.1056 69.3956 62.0213C68.0252 62.937 66.9571 64.2385 66.3264 65.7612C65.6957 67.2839 65.5306 68.9595 65.8522 70.576C66.1737 72.1925 66.9674 73.6773 68.1328 74.8428C69.2983 76.0082 70.7831 76.8019 72.3996 77.1234C74.0162 77.445 75.6917 77.2799 77.2144 76.6492C78.7371 76.0185 80.0386 74.9504 80.9543 73.58C81.87 72.2095 82.3587 70.5984 82.3587 68.9502C82.3587 66.7401 81.4808 64.6205 79.918 63.0576C78.3552 61.4948 76.2355 60.6169 74.0254 60.6169Z" fill="#FF4343"/>
</svg>
