<svg width="100" height="102" viewBox="0 0 100 102" fill="none" xmlns="http://www.w3.org/2000/svg">
<path d="M49.3001 90.2281C38.802 90.2281 28.7338 85.9998 21.3105 78.4734C13.8872 70.947 9.7168 60.739 9.7168 50.095C9.7168 39.4511 13.8872 29.243 21.3105 21.7166C28.7338 14.1902 38.802 9.96191 49.3001 9.96191C49.8527 9.96191 50.3826 10.1845 50.7733 10.5806C51.164 10.9767 51.3835 11.514 51.3835 12.0742C51.3835 12.6344 51.164 13.1717 50.7733 13.5678C50.3826 13.9639 49.8527 14.1865 49.3001 14.1865C43.457 14.1513 37.6962 15.5825 32.531 18.3525C27.3658 21.1224 22.9568 25.145 19.697 30.0618C16.4372 34.9785 14.4279 40.6367 13.8482 46.5318C13.2685 52.4269 14.1364 58.3758 16.3745 63.8484C18.6126 69.3209 22.1514 74.147 26.6754 77.8964C31.1995 81.6459 36.5683 84.2021 42.3032 85.3374C48.0381 86.4727 53.9609 86.1518 59.5438 84.4031C65.1266 82.6545 70.196 79.5325 74.3001 75.3155C74.4854 75.0931 74.714 74.912 74.9715 74.7835C75.2291 74.6549 75.51 74.5817 75.7968 74.5685C76.0836 74.5552 76.37 74.6022 76.638 74.7065C76.906 74.8107 77.1499 74.9701 77.3543 75.1744C77.5587 75.3787 77.7193 75.6237 77.8259 75.894C77.9326 76.1642 77.9829 76.4538 77.974 76.7448C77.965 77.0357 77.8968 77.3216 77.7736 77.5845C77.6505 77.8474 77.4751 78.0817 77.2585 78.2727C73.6154 82.0488 69.2666 85.051 64.4662 87.1037C59.6658 89.1564 54.51 90.2186 49.3001 90.2281Z" fill="#FF4343"/>
<path d="M48.0498 63.6128C47.7797 63.6216 47.5106 63.5736 47.2596 63.4718C47.0086 63.37 46.7812 63.2167 46.5915 63.0214L29.9248 46.1232C29.7296 45.9269 29.5746 45.6932 29.4688 45.4358C29.363 45.1784 29.3086 44.9024 29.3086 44.6235C29.3086 44.3447 29.363 44.0686 29.4688 43.8112C29.5746 43.5538 29.7296 43.3202 29.9248 43.1238C30.3213 42.7341 30.8518 42.5162 31.404 42.5162C31.9562 42.5162 32.4867 42.7341 32.8832 43.1238L48.0498 58.5434L82.0082 24.1134C82.4005 23.7156 82.9325 23.4922 83.4873 23.4922C84.0421 23.4922 84.5742 23.7156 84.9665 24.1134C85.3588 24.5111 85.5792 25.0506 85.5792 25.6131C85.5792 26.1756 85.3588 26.7151 84.9665 27.1128L49.5498 63.0214C49.351 63.2159 49.116 63.3683 48.8584 63.4699C48.6009 63.5714 48.3261 63.62 48.0498 63.6128Z" fill="#FF4343"/>
</svg>
