<svg width="100" height="100" viewBox="0 0 100 100" fill="none" xmlns="http://www.w3.org/2000/svg">
<path d="M29.4919 87.4087C27.9912 87.3716 26.5376 86.8773 25.3252 85.9921C24.0464 85.0728 23.0996 83.7643 22.6264 82.2621C22.1532 80.7599 22.1791 79.145 22.7002 77.6587L27.9502 61.4921C28.1555 60.8542 28.1531 60.1677 27.9435 59.5313C27.7338 58.8949 27.3277 58.3414 26.7836 57.9504L13.0336 47.9504C11.7966 47.0455 10.8743 45.7757 10.3962 44.3196C9.91812 42.8634 9.90825 41.2941 10.368 39.8321C10.8278 38.37 11.734 37.0888 12.9595 36.1683C14.185 35.2479 15.668 34.7346 17.2002 34.7004H34.2002C34.8395 34.7151 35.4683 34.5358 36.0038 34.1863C36.5393 33.8367 36.9564 33.3332 37.2002 32.7421L42.4502 16.5337C42.8944 15.0387 43.8142 13.7294 45.07 12.8044C46.3258 11.8795 47.849 11.3895 49.4086 11.4087C50.9559 11.3909 52.468 11.8715 53.7211 12.7794C54.9742 13.6874 55.9019 14.9745 56.3669 16.4504L61.6169 32.7421C61.832 33.3688 62.2359 33.9136 62.773 34.3015C63.3102 34.6895 63.9543 34.9016 64.6169 34.9087H81.6586C83.1908 34.9429 84.6738 35.4562 85.8993 36.3767C87.1247 37.2971 88.031 38.5784 88.4908 40.0404C88.9505 41.5024 88.9407 43.0718 88.4626 44.5279C87.9845 45.984 87.0622 47.2538 85.8252 48.1587L72.0752 58.1587C71.5311 58.5497 71.125 59.1032 70.9153 59.7396C70.7057 60.3761 70.7033 61.0626 70.9086 61.7004L76.2002 77.9087C76.7102 79.3999 76.7262 81.0157 76.2459 82.5167C75.7656 84.0177 74.8145 85.324 73.5336 86.2421C72.2908 87.1784 70.7771 87.6848 69.2211 87.6848C67.6651 87.6848 66.1513 87.1784 64.9086 86.2421L51.1586 76.2421C50.6165 75.8582 49.9686 75.652 49.3044 75.652C48.6402 75.652 47.9923 75.8582 47.4502 76.2421L33.6586 86.2421C32.423 87.051 30.9678 87.4584 29.4919 87.4087ZM17.1586 38.9921C16.4898 38.973 15.8335 39.175 15.2912 39.5667C14.7488 39.9584 14.3507 40.518 14.1586 41.1587C13.9423 41.7918 13.9349 42.4774 14.1374 43.115C14.3399 43.7525 14.7417 44.3082 15.2836 44.7004L29.0752 54.7004C30.351 55.6229 31.298 56.9295 31.7778 58.4289C32.2577 59.9283 32.2451 61.542 31.7419 63.0337L26.4919 79.0754C26.2688 79.7078 26.2579 80.3956 26.4609 81.0348C26.6639 81.6739 27.0698 82.2294 27.6169 82.6171C28.1485 83.0259 28.8004 83.2476 29.4711 83.2476C30.1417 83.2476 30.7936 83.0259 31.3252 82.6171L45.2419 72.6171C46.4862 71.7032 47.9897 71.2104 49.5336 71.2104C51.0774 71.2104 52.5809 71.7032 53.8252 72.6171L67.4919 82.7421C68.0235 83.1509 68.6754 83.3726 69.3461 83.3726C70.0167 83.3726 70.6686 83.1509 71.2002 82.7421C71.7474 82.3544 72.1532 81.7989 72.3562 81.1598C72.5592 80.5206 72.5484 79.8328 72.3252 79.2004L67.0752 63.0337C66.5721 61.542 66.5595 59.9283 67.0393 58.4289C67.5191 56.9295 68.4662 55.6229 69.7419 54.7004L83.4919 44.7004C84.0227 44.3062 84.4168 43.7556 84.6189 43.1261C84.8209 42.4965 84.8209 41.8195 84.6187 41.19C84.4165 40.5604 84.0223 40.01 83.4915 39.6158C82.9606 39.2216 82.3197 39.0035 81.6586 38.9921H64.6169C63.0884 38.9731 61.6041 38.4769 60.3715 37.573C59.1388 36.669 58.2195 35.4025 57.7419 33.9504L52.4086 17.7421C52.2164 17.1013 51.8183 16.5417 51.276 16.15C50.7336 15.7583 50.0773 15.5564 49.4086 15.5754C48.7398 15.5564 48.0835 15.7583 47.5412 16.15C46.9988 16.5417 46.6007 17.1013 46.4086 17.7421L41.0752 33.9504C40.5977 35.4025 39.6783 36.669 38.4456 37.573C37.213 38.4769 35.7287 38.9731 34.2002 38.9921H17.1586Z" fill="#FF4343"/>
</svg>
