<svg width="100" height="100" viewBox="0 0 100 100" fill="none" xmlns="http://www.w3.org/2000/svg">
<path d="M66.4922 67.2827C66.1474 67.2866 65.8071 67.205 65.5016 67.045C65.1962 66.885 64.9353 66.6517 64.7422 66.366C64.5883 66.1346 64.4823 65.8746 64.4303 65.6015C64.3784 65.3285 64.3817 65.0478 64.4399 64.776C64.4982 64.5042 64.6102 64.2468 64.7695 64.0189C64.9287 63.7911 65.132 63.5974 65.3672 63.4494C70.7271 60.0019 74.8264 54.9114 77.0518 48.9398C79.2772 42.9681 79.5089 36.4363 77.7123 30.322C75.9157 24.2076 72.1874 18.8394 67.0853 15.0208C61.9832 11.2022 55.7817 9.13845 49.4089 9.13845C43.036 9.13845 36.8345 11.2022 31.7324 15.0208C26.6303 18.8394 22.902 24.2076 21.1054 30.322C19.3088 36.4363 19.5405 42.9681 21.7659 48.9398C23.9913 54.9114 28.0907 60.0019 33.4505 63.4494C33.6962 63.5895 33.9108 63.7782 34.0812 64.004C34.2516 64.2298 34.3742 64.488 34.4416 64.7627C34.509 65.0374 34.5197 65.323 34.4732 65.602C34.4266 65.881 34.3237 66.1476 34.1707 66.3855C34.0178 66.6235 33.8179 66.8278 33.5834 66.986C33.3489 67.1442 33.0847 67.253 32.8068 67.3058C32.5289 67.3585 32.2431 67.3541 31.967 67.2928C31.6908 67.2316 31.43 67.1147 31.2005 66.9494C25.0827 63.0156 20.4033 57.2064 17.8628 50.3912C15.3222 43.5759 15.0571 36.1212 17.1071 29.1427C19.157 22.1641 23.4119 16.0372 29.2348 11.6788C35.0577 7.32032 42.1355 4.96484 49.4089 4.96484C56.6822 4.96484 63.76 7.32032 69.5829 11.6788C75.4058 16.0372 79.6607 22.1641 81.7107 29.1427C83.7607 36.1212 83.4955 43.5759 80.9549 50.3912C78.4144 57.2064 73.735 63.0156 67.6172 66.9494C67.2851 67.1728 66.8925 67.2892 66.4922 67.2827Z" fill="#FF4343"/>
<path d="M66.4922 83.7422H32.3255C31.7763 83.7315 31.2526 83.5086 30.8642 83.1202C30.4758 82.7318 30.2529 82.2081 30.2422 81.6589V65.2005C30.2529 64.6513 30.4758 64.1276 30.8642 63.7392C31.2526 63.3508 31.7763 63.1279 32.3255 63.1172C32.8781 63.1172 33.408 63.3367 33.7987 63.7274C34.1894 64.1181 34.4089 64.648 34.4089 65.2005V79.5755H64.4089V65.2005C64.4089 64.648 64.6283 64.1181 65.019 63.7274C65.4097 63.3367 65.9397 63.1172 66.4922 63.1172C67.0414 63.1279 67.5651 63.3508 67.9535 63.7392C68.3419 64.1276 68.5649 64.6513 68.5755 65.2005V81.6589C68.5649 82.2081 68.3419 82.7318 67.9535 83.1202C67.5651 83.5086 67.0414 83.7315 66.4922 83.7422Z" fill="#FF4343"/>
<path d="M38.4915 93.9082C37.939 93.9082 37.4091 93.6887 37.0184 93.298C36.6277 92.9073 36.4082 92.3774 36.4082 91.8249V84.4915C36.4189 83.9423 36.6418 83.4186 37.0302 83.0302C37.4186 82.6418 37.9423 82.4189 38.4915 82.4082C39.0441 82.4082 39.574 82.6277 39.9647 83.0184C40.3554 83.4091 40.5749 83.939 40.5749 84.4915V91.8249C40.5749 92.3774 40.3554 92.9073 39.9647 93.298C39.574 93.6887 39.0441 93.9082 38.4915 93.9082Z" fill="#FF4343"/>
<path d="M60.3255 93.9082C59.773 93.9082 59.2431 93.6887 58.8524 93.298C58.4617 92.9073 58.2422 92.3774 58.2422 91.8249V84.4915C58.2422 83.939 58.4617 83.4091 58.8524 83.0184C59.2431 82.6277 59.773 82.4082 60.3255 82.4082C60.8747 82.4189 61.3984 82.6418 61.7869 83.0302C62.1753 83.4186 62.3982 83.9423 62.4089 84.4915V91.8249C62.4089 92.3774 62.1894 92.9073 61.7987 93.298C61.408 93.6887 60.8781 93.9082 60.3255 93.9082Z" fill="#FF4343"/>
<path d="M49.4085 83.7422C48.856 83.7422 48.3261 83.5227 47.9354 83.132C47.5447 82.7413 47.3252 82.2114 47.3252 81.6588V48.3255C47.3252 47.773 47.5447 47.2431 47.9354 46.8524C48.3261 46.4617 48.856 46.2422 49.4085 46.2422C49.9611 46.2422 50.491 46.4617 50.8817 46.8524C51.2724 47.2431 51.4919 47.773 51.4919 48.3255V81.6588C51.4919 82.2114 51.2724 82.7413 50.8817 83.132C50.491 83.5227 49.9611 83.7422 49.4085 83.7422Z" fill="#FF4343"/>
</svg>
