<svg width="100" height="100" viewBox="0 0 100 100" fill="none" xmlns="http://www.w3.org/2000/svg">
<path d="M62.7591 88.1257H25.5924C22.0966 88.1146 18.7477 86.7182 16.2797 84.2423C13.8116 81.7665 12.4258 78.4132 12.4258 74.9173V37.8757C12.4368 34.387 13.8275 31.0444 16.2943 28.5776C18.7612 26.1107 22.1038 24.72 25.5924 24.709H36.7174C37.27 24.709 37.7999 24.9285 38.1906 25.3192C38.5813 25.7099 38.8008 26.2398 38.8008 26.7923C38.8008 27.3449 38.5813 27.8748 38.1906 28.2655C37.7999 28.6562 37.27 28.8757 36.7174 28.8757H25.5924C23.2089 28.8866 20.9261 29.8383 19.2406 31.5238C17.5551 33.2093 16.6034 35.4921 16.5924 37.8757V74.9173C16.5924 77.3081 17.5393 79.6016 19.2259 81.2961C20.9126 82.9905 23.2017 83.948 25.5924 83.959H62.7591C63.9465 83.959 65.1222 83.7251 66.2192 83.2707C67.3162 82.8164 68.3129 82.1503 69.1525 81.3107C69.9921 80.4712 70.6581 79.4744 71.1125 78.3774C71.5669 77.2804 71.8008 76.1047 71.8008 74.9173V67.5007C71.8008 66.9481 72.0203 66.4182 72.411 66.0275C72.8017 65.6368 73.3316 65.4173 73.8841 65.4173C74.4366 65.4173 74.9666 65.6368 75.3573 66.0275C75.748 66.4182 75.9674 66.9481 75.9674 67.5007V74.9173C75.9674 78.4204 74.5759 81.78 72.0988 84.257C69.6218 86.7341 66.2622 88.1257 62.7591 88.1257Z" fill="#FF4343"/>
<path d="M73.7179 39.3756C73.1795 39.3761 72.6618 39.1681 72.2734 38.7952C71.885 38.4223 71.6561 37.9136 71.6345 37.3756C71.5516 35.8318 71.0629 34.3371 70.2179 33.0423C69.5377 31.9667 68.6268 31.0559 67.5512 30.3756C66.3002 29.5675 64.8689 29.0808 63.3845 28.959C63.1109 28.9483 62.842 28.8837 62.5934 28.7689C62.3447 28.6542 62.1211 28.4916 61.9353 28.2903C61.7495 28.0891 61.6053 27.8532 61.5108 27.5962C61.4163 27.3391 61.3734 27.066 61.3845 26.7923C61.3728 26.2647 61.5658 25.7529 61.9232 25.3645C62.2805 24.9761 62.7744 24.7412 63.3012 24.709C65.6148 24.8121 67.8588 25.5313 69.8012 26.7923C71.3832 27.7885 72.7216 29.127 73.7179 30.709C74.9789 32.6514 75.6981 34.8954 75.8012 37.209C75.8124 37.4826 75.7695 37.7558 75.675 38.0128C75.5805 38.2699 75.4362 38.5058 75.2505 38.707C75.0647 38.9082 74.8411 39.0709 74.5924 39.1856C74.3437 39.3003 74.0749 39.3649 73.8012 39.3756H73.7179Z" fill="#FF4343"/>
<path d="M54.4258 58.5008H44.1342C43.5816 58.5008 43.0517 58.2813 42.661 57.8906C42.2703 57.4999 42.0508 56.97 42.0508 56.4175V45.9175C42.0476 45.3739 42.2569 44.8505 42.6342 44.4591L63.4675 23.6258C63.8569 23.2441 64.3805 23.0303 64.9258 23.0303C65.4711 23.0303 65.9947 23.2441 66.3842 23.6258L70.0092 27.2508C70.3909 27.6402 70.6047 28.1638 70.6047 28.7091C70.6047 29.2545 70.3909 29.778 70.0092 30.1675C69.8155 30.3627 69.5851 30.5177 69.3312 30.6235C69.0773 30.7293 68.805 30.7837 68.53 30.7837C68.255 30.7837 67.9827 30.7293 67.7288 30.6235C67.4749 30.5177 67.2445 30.3627 67.0508 30.1675L64.9258 28.0841L46.0925 46.7925V54.3341H53.6342L72.5092 35.4175L70.3842 33.2925C70.0024 32.903 69.7886 32.3795 69.7886 31.8341C69.7886 31.2888 70.0024 30.7652 70.3842 30.3758C70.5778 30.1805 70.8083 30.0256 71.0621 29.9198C71.316 29.814 71.5883 29.7596 71.8633 29.7596C72.1384 29.7596 72.4107 29.814 72.6645 29.9198C72.9184 30.0256 73.1488 30.1805 73.3425 30.3758L76.9258 33.9591C77.1211 34.1528 77.2761 34.3832 77.3819 34.6371C77.4876 34.891 77.5421 35.1633 77.5421 35.4383C77.5421 35.7133 77.4876 35.9856 77.3819 36.2395C77.2761 36.4934 77.1211 36.7238 76.9258 36.9175L56.0925 57.7508C55.8843 57.9875 55.6279 58.177 55.3404 58.3063C55.0529 58.4357 54.7411 58.502 54.4258 58.5008Z" fill="#FF4343"/>
<path d="M75.5923 37.5004C75.036 37.5057 74.4989 37.2969 74.0923 36.917L70.509 33.292C70.1273 32.9026 69.9135 32.379 69.9135 31.8337C69.9135 31.2884 70.1273 30.7648 70.509 30.3754C70.7027 30.1801 70.9331 30.0251 71.187 29.9193C71.4408 29.8136 71.7131 29.7591 71.9882 29.7591C72.2632 29.7591 72.5355 29.8136 72.7894 29.9193C73.0432 30.0251 73.2737 30.1801 73.4673 30.3754L75.5923 32.5004L83.0923 24.9587L75.5923 17.4587L68.0507 24.9587L70.1757 27.0837C70.5574 27.4731 70.7712 27.9967 70.7712 28.542C70.7712 29.0873 70.5574 29.6109 70.1757 30.0004C69.982 30.1956 69.7516 30.3506 69.4977 30.4564C69.2438 30.5622 68.9715 30.6166 68.6965 30.6166C68.4215 30.6166 68.1492 30.5622 67.8953 30.4564C67.6414 30.3506 67.411 30.1956 67.2173 30.0004L63.634 26.417C63.4338 26.231 63.2748 26.0052 63.1672 25.754C63.0596 25.5028 63.0057 25.2319 63.009 24.9587C63.005 24.6792 63.0583 24.4019 63.1658 24.1438C63.2733 23.8858 63.4327 23.6526 63.634 23.4587L74.0923 13.042C74.286 12.8468 74.5164 12.6918 74.7703 12.586C75.0242 12.4802 75.2965 12.4258 75.5715 12.4258C75.8465 12.4258 76.1188 12.4802 76.3727 12.586C76.6266 12.6918 76.857 12.8468 77.0507 13.042L87.509 23.4587C87.8934 23.8552 88.1083 24.3857 88.1083 24.9379C88.1083 25.4901 87.8934 26.0206 87.509 26.417L77.0507 36.917C76.6593 37.2943 76.1359 37.5036 75.5923 37.5004Z" fill="#FF4343"/>
</svg>
