<svg width="100" height="100" viewBox="0 0 100 100" fill="none" xmlns="http://www.w3.org/2000/svg">
<path d="M76.2682 71.6169H22.6848C18.5519 71.6169 14.5882 69.9751 11.6657 67.0526C8.74329 64.1302 7.10148 60.1665 7.10148 56.0335V26.8669C7.07947 24.8045 7.46599 22.7581 8.23876 20.8459C9.01152 18.9336 10.1552 17.1933 11.6039 15.7252C13.0526 14.2571 14.7776 13.0904 16.6795 12.2923C18.5813 11.4942 20.6223 11.0806 22.6848 11.0752H76.2682C80.3977 11.0862 84.355 12.7315 87.2751 15.6516C90.1951 18.5717 91.8405 22.529 91.8515 26.6585V56.0335C91.8515 58.08 91.4484 60.1064 90.6653 61.997C89.8821 63.8877 88.7343 65.6056 87.2872 67.0526C85.8402 68.4997 84.1223 69.6475 82.2316 70.4307C80.341 71.2138 78.3146 71.6169 76.2682 71.6169ZM22.6848 15.2419C19.6569 15.2419 16.753 16.4447 14.612 18.5857C12.471 20.7268 11.2681 23.6306 11.2681 26.6585V56.0335C11.2681 59.0614 12.471 61.9653 14.612 64.1063C16.753 66.2474 19.6569 67.4502 22.6848 67.4502H76.2682C79.296 67.4502 82.1999 66.2474 84.341 64.1063C86.482 61.9653 87.6848 59.0614 87.6848 56.0335V26.8669C87.7125 25.3502 87.4376 23.8432 86.8763 22.4339C86.315 21.0246 85.4784 19.7413 84.4155 18.659C83.3526 17.5767 82.0847 16.7171 80.6858 16.1304C79.2869 15.5437 77.7851 15.2416 76.2682 15.2419H22.6848Z" fill="#FF4343"/>
<path d="M89.7673 55.7839H9.18392C8.63472 55.7732 8.111 55.5503 7.72258 55.1619C7.33417 54.7734 7.11125 54.2497 7.10059 53.7005C7.10059 53.148 7.32008 52.6181 7.71078 52.2274C8.10148 51.8367 8.63138 51.6172 9.18392 51.6172H89.7673C90.3198 51.6172 90.8497 51.8367 91.2404 52.2274C91.6311 52.6181 91.8506 53.148 91.8506 53.7005C91.8506 54.2531 91.6311 54.783 91.2404 55.1737C90.8497 55.5644 90.3198 55.7839 89.7673 55.7839Z" fill="#FF4343"/>
<path d="M49.4202 87.7419C48.8677 87.7419 48.3378 87.5224 47.9471 87.1317C47.5564 86.741 47.3369 86.2111 47.3369 85.6585V69.5335C47.3369 68.981 47.5564 68.4511 47.9471 68.0604C48.3378 67.6697 48.8677 67.4502 49.4202 67.4502C49.9728 67.4502 50.5027 67.6697 50.8934 68.0604C51.2841 68.4511 51.5036 68.981 51.5036 69.5335V85.6585C51.5036 86.2111 51.2841 86.741 50.8934 87.1317C50.5027 87.5224 49.9728 87.7419 49.4202 87.7419Z" fill="#FF4343"/>
<path d="M73.4938 87.7419H25.1605C24.6079 87.7419 24.078 87.5224 23.6873 87.1317C23.2966 86.741 23.0771 86.2111 23.0771 85.6585C23.0771 85.106 23.2966 84.5761 23.6873 84.1854C24.078 83.7947 24.6079 83.5752 25.1605 83.5752H73.4938C74.0464 83.5752 74.5763 83.7947 74.967 84.1854C75.3577 84.5761 75.5771 85.106 75.5771 85.6585C75.5771 86.2111 75.3577 86.741 74.967 87.1317C74.5763 87.5224 74.0464 87.7419 73.4938 87.7419Z" fill="#FF4343"/>
</svg>
