<svg width="270" height="101" viewBox="0 0 270 101" fill="none" xmlns="http://www.w3.org/2000/svg">
<path d="M16.0136 59.0862H7.81939L6.38839 63.7641H0L9.09706 38.7235H14.7188L23.884 63.7641H17.4616L16.0136 59.0862ZM9.25038 54.4255H14.5826L11.908 45.7404L9.25038 54.4255Z" fill="#656980"/>
<path d="M45.4001 55.2854C45.3206 57.0282 44.855 58.5703 44.0032 59.9117C43.1514 61.2417 41.9532 62.2736 40.4087 63.0074C38.8755 63.7412 37.1208 64.1081 35.1446 64.1081C31.8851 64.1081 29.3184 63.0361 27.4445 60.892C25.5706 58.748 24.6336 55.7211 24.6336 51.8114V50.5731C24.6336 48.1195 25.0538 45.9754 25.8943 44.1409C26.746 42.295 27.9669 40.8733 29.5569 39.8758C31.1469 38.8668 32.9868 38.3623 35.0765 38.3623C38.0861 38.3623 40.5052 39.1649 42.3337 40.7701C44.1622 42.3638 45.2014 44.5651 45.4512 47.3742H39.4887C39.4433 45.8493 39.0629 44.7543 38.3474 44.0893C37.6319 43.4243 36.5416 43.0918 35.0765 43.0918C33.5887 43.0918 32.4984 43.6536 31.8056 44.7773C31.1129 45.9009 30.7494 47.6952 30.7154 50.1603V51.9317C30.7154 54.6032 31.0447 56.5122 31.7034 57.6588C32.3735 58.8053 33.5206 59.3786 35.1446 59.3786C36.5189 59.3786 37.5694 59.0518 38.2962 58.3983C39.0231 57.7448 39.4092 56.7071 39.4547 55.2854H45.4001Z" fill="#656980"/>
<path d="M67.1888 43.3842H59.7442V63.7641H53.7647V43.3842H46.4563V38.7235H67.1888V43.3842Z" fill="#656980"/>
<path d="M76.0985 63.7641H70.136V38.7235H76.0985V63.7641Z" fill="#656980"/>
<path d="M89.8803 56.9536L94.8207 38.7235H101.499L93.1512 63.7641H86.6095L78.3301 38.7235H84.957L89.8803 56.9536Z" fill="#656980"/>
<path d="M118.705 53.1528H109.301V59.1206H120.408V63.7641H103.322V38.7235H120.442V43.3842H109.301V48.6641H118.705V53.1528Z" fill="#656980"/>
<path d="M123.454 63.7469V38.7063H129.979C132.648 38.7063 134.664 39.2566 136.026 40.3573C137.401 41.4465 138.088 43.0345 138.088 45.1212C138.088 46.6347 137.707 47.8901 136.946 48.8876C136.185 49.8851 135.112 50.5215 133.727 50.7966C135.294 51.003 136.6 51.691 137.645 52.8604C138.69 54.0185 139.212 55.3485 139.212 56.8504C139.212 58.983 138.525 60.6685 137.151 61.9067C135.788 63.1335 133.886 63.7469 131.444 63.7469H123.454ZM124.374 51.3814V62.8182H131.546C133.647 62.8182 135.294 62.2966 136.486 61.2532C137.69 60.1984 138.292 58.7422 138.292 56.8848C138.292 55.3026 137.713 54.0013 136.555 52.9808C135.396 51.9489 133.846 51.4158 131.904 51.3814H124.374ZM124.374 50.4527H130.319C132.58 50.4527 134.283 50.017 135.43 49.1456C136.577 48.2628 137.151 46.8984 137.151 45.0524C137.151 41.4981 134.828 39.6923 130.183 39.635H124.374V50.4527Z" fill="white"/>
<path d="M162.074 53.1012C162.074 55.2682 161.688 57.1887 160.916 58.8626C160.155 60.5251 159.064 61.815 157.645 62.7322C156.225 63.638 154.59 64.0909 152.738 64.0909C149.945 64.0909 147.685 63.0877 145.958 61.0812C144.232 59.0747 143.369 56.3689 143.369 52.9636V49.352C143.369 47.1965 143.749 45.2817 144.51 43.6078C145.283 41.9338 146.378 40.6439 147.798 39.7382C149.229 38.8209 150.865 38.3623 152.704 38.3623C154.556 38.3623 156.191 38.8209 157.611 39.7382C159.042 40.6439 160.143 41.9395 160.916 43.625C161.688 45.2989 162.074 47.2079 162.074 49.352V53.1012ZM161.154 49.3176C161.154 46.2907 160.393 43.8657 158.871 42.0427C157.349 40.2083 155.294 39.291 152.704 39.291C150.149 39.291 148.11 40.2025 146.589 42.0255C145.067 43.8371 144.306 46.3079 144.306 49.438V53.1012C144.306 55.0962 144.647 56.8619 145.328 58.3983C146.021 59.9232 147.003 61.0984 148.275 61.9239C149.547 62.7494 151.035 63.1622 152.738 63.1622C155.328 63.1622 157.378 62.2507 158.888 60.4277C160.399 58.6047 161.154 56.1166 161.154 52.9636V49.3176Z" fill="white"/>
<path d="M174.374 50.2463L182.381 38.7063H183.539L174.953 50.9686L183.863 63.7469H182.721L174.374 51.691L165.992 63.7469H164.885L173.795 50.9686L165.209 38.7063H166.367L174.374 50.2463Z" fill="white"/>
</svg>
